<?xml version="1.0" standalone="no"?>
<!DOCTYPE svg PUBLIC "-//W3C//DTD SVG 20010904//EN"
 "http://www.w3.org/TR/2001/REC-SVG-20010904/DTD/svg10.dtd">
<svg version="1.0" xmlns="http://www.w3.org/2000/svg"
 width="500.000000pt" height="500.000000pt" viewBox="0 0 500.000000 500.000000"
 preserveAspectRatio="xMidYMid meet">
<metadata>
Created by potrace 1.14, written by Peter Selinger 2001-2017
</metadata>
<g transform="translate(0.000000,500.000000) scale(0.100000,-0.100000)"
fill="#000000" stroke="none">
<path d="M3328 3349 c-199 -29 -358 -113 -474 -251 -84 -101 -135 -225 -154
-378 -13 -112 -13 -1544 0 -1664 38 -327 249 -556 573 -622 61 -13 114 -15
231 -11 166 6 228 19 341 71 147 69 254 174 326 321 69 141 71 165 76 667 5
442 4 447 -16 467 -21 21 -30 21 -384 21 -340 0 -365 -1 -380 -18 -14 -16 -17
-44 -17 -183 0 -90 5 -171 10 -179 7 -12 40 -16 157 -20 l148 -5 0 -255 c0
-246 -1 -257 -24 -307 -29 -64 -101 -134 -164 -158 -70 -27 -198 -18 -259 18
-61 36 -102 84 -127 152 -21 55 -21 67 -21 869 0 926 -4 877 82 971 155 170
435 100 502 -125 11 -36 16 -93 16 -175 0 -105 2 -124 18 -138 16 -15 47 -17
225 -17 248 0 237 -6 237 135 0 335 -93 541 -314 694 -147 102 -396 151 -608
120z"/>
<path d="M1555 3323 c-719 -3 -781 -4 -792 -20 -16 -21 -18 -335 -3 -364 10
-18 24 -19 266 -19 157 0 263 -4 275 -10 19 -10 19 -35 19 -1223 0 -930 3
-1216 12 -1225 17 -17 429 -17 446 0 9 9 12 295 12 1225 l0 1213 27 11 c16 6
127 10 272 9 135 -1 254 -1 263 0 28 0 33 47 28 226 -5 156 -6 167 -25 173
-11 3 -371 5 -800 4z"/>
</g>
</svg>
